/* XPM */
static char * tile2_xpm[] = {
"64 64 531 2",
"  	c #4D3F36",
". 	c #4D3A2F",
"+ 	c #4D392F",
"@ 	c #4C382F",
"# 	c #4C392F",
"$ 	c #4A372D",
"% 	c #4A372C",
"& 	c #49362B",
"* 	c #48352B",
"= 	c #49352B",
"- 	c #49352C",
"; 	c #48342C",
"> 	c #4D3A2E",
", 	c #5A4837",
"' 	c #534031",
") 	c #48352A",
"! 	c #4D3A2D",
"~ 	c #4E3A2E",
"{ 	c #4F3A2E",
"] 	c #4E3A2D",
"^ 	c #4D392D",
"/ 	c #4A362D",
"( 	c #534035",
"_ 	c #5A4738",
": 	c #5A4836",
"< 	c #503D2F",
"[ 	c #4C382C",
"} 	c #523F31",
"| 	c #584533",
"1 	c #5B4837",
"2 	c #574537",
"3 	c #4E3C30",
"4 	c #493529",
"5 	c #4A362A",
"6 	c #4D392C",
"7 	c #4F3B2E",
"8 	c #4E3A2C",
"9 	c #4A352B",
"0 	c #49362C",
"a 	c #594638",
"b 	c #4C3929",
"c 	c #4E3B2D",
"d 	c #594639",
"e 	c #49352A",
"f 	c #4D382C",
"g 	c #4A382E",
"h 	c #4D3C32",
"i 	c #4C362A",
"j 	c #4C362B",
"k 	c #4D372C",
"l 	c #594435",
"m 	c #5D4835",
"n 	c #513C2C",
"o 	c #4F392E",
"p 	c #523C2E",
"q 	c #513B2D",
"r 	c #523B2D",
"s 	c #523A2E",
"t 	c #513B2C",
"u 	c #513C2B",
"v 	c #523C2D",
"w 	c #4F392B",
"x 	c #4D372A",
"y 	c #5E4936",
"z 	c #5E4937",
"A 	c #5E4938",
"B 	c #5C4736",
"C 	c #543E2F",
"D 	c #513A2C",
"E 	c #533C2E",
"F 	c #523B2C",
"G 	c #51392E",
"H 	c #564032",
"I 	c #533D2D",
"J 	c #513B2E",
"K 	c #503A2D",
"L 	c #553F31",
"M 	c #4C352B",
"N 	c #4E362A",
"O 	c #51392D",
"P 	c #50382C",
"Q 	c #4B362B",
"R 	c #4C3A32",
"S 	c #4C362C",
"T 	c #503B2C",
"U 	c #4E382B",
"V 	c #4E372B",
"W 	c #4F392C",
"X 	c #4C3629",
"Y 	c #5D4834",
"Z 	c #5E4935",
"` 	c #5C4734",
" .	c #503B2B",
"..	c #513B2F",
"+.	c #4D3629",
"@.	c #523C30",
"#.	c #584233",
"$.	c #503A2E",
"%.	c #4F392D",
"&.	c #564033",
"*.	c #4C352D",
"=.	c #483429",
"-.	c #4C3A33",
";.	c #4C3628",
">.	c #5A4534",
",.	c #5F4935",
"'.	c #4D372B",
").	c #4F3A2B",
"!.	c #5B4534",
"~.	c #4D3729",
"{.	c #4E382C",
"].	c #523B2E",
"^.	c #5B4537",
"/.	c #4B352A",
"(.	c #584235",
"_.	c #4C3A31",
":.	c #4C362D",
"<.	c #564031",
"[.	c #5E4837",
"}.	c #5F4936",
"|.	c #523C2F",
"1.	c #4E382A",
"2.	c #4C372B",
"3.	c #594337",
"4.	c #47352A",
"5.	c #5D4838",
"6.	c #5D4635",
"7.	c #573F31",
"8.	c #5D4735",
"9.	c #513A2D",
"0.	c #50392D",
"a.	c #50392C",
"b.	c #4F372B",
"c.	c #5D4837",
"d.	c #5C4638",
"e.	c #523D2E",
"f.	c #5D4836",
"g.	c #5E4934",
"h.	c #5E4736",
"i.	c #4F372C",
"j.	c #5E4738",
"k.	c #594331",
"l.	c #4D362C",
"m.	c #513C2E",
"n.	c #5D4738",
"o.	c #533E2F",
"p.	c #513C2D",
"q.	c #594335",
"r.	c #5F4836",
"s.	c #5F4835",
"t.	c #5B4536",
"u.	c #4C352C",
"v.	c #4B352D",
"w.	c #5E4839",
"x.	c #574230",
"y.	c #533D30",
"z.	c #5E4939",
"A.	c #48352C",
"B.	c #534236",
"C.	c #564030",
"D.	c #584332",
"E.	c #5B4535",
"F.	c #5C4636",
"G.	c #5F4837",
"H.	c #5F4838",
"I.	c #554030",
"J.	c #4D3829",
"K.	c #503A2C",
"L.	c #5C4737",
"M.	c #574133",
"N.	c #55402F",
"O.	c #543F2F",
"P.	c #5C4835",
"Q.	c #5F4A36",
"R.	c #564130",
"S.	c #503C30",
"T.	c #5D4C3E",
"U.	c #5E4A33",
"V.	c #5F4A35",
"W.	c #5E4836",
"X.	c #5B4434",
"Y.	c #553E30",
"Z.	c #4F382B",
"`.	c #4F372A",
" +	c #533C2F",
".+	c #584133",
"++	c #5D4634",
"@+	c #4E362B",
"#+	c #553F30",
"$+	c #543E30",
"%+	c #5A4639",
"&+	c #4F3E33",
"*+	c #4F382D",
"=+	c #4D362E",
"-+	c #4D362B",
";+	c #564132",
">+	c #5E4838",
",+	c #4E392B",
"'+	c #5F4934",
")+	c #5E4834",
"!+	c #5E4835",
"~+	c #5D4637",
"{+	c #5A4234",
"]+	c #574132",
"^+	c #5D4636",
"/+	c #563F33",
"(+	c #533D2E",
"_+	c #4C382D",
":+	c #513F34",
"<+	c #53392D",
"[+	c #523D2F",
"}+	c #50382D",
"|+	c #4C3528",
"1+	c #4D362A",
"2+	c #5D4737",
"3+	c #5C4735",
"4+	c #584333",
"5+	c #5A4434",
"6+	c #523F34",
"7+	c #54392D",
"8+	c #5B4634",
"9+	c #523A2D",
"0+	c #5E4737",
"a+	c #5A4332",
"b+	c #52392D",
"c+	c #5A4536",
"d+	c #5B4635",
"e+	c #5B4633",
"f+	c #543A2D",
"g+	c #574232",
"h+	c #5A4432",
"i+	c #523C2C",
"j+	c #4E372A",
"k+	c #4E3829",
"l+	c #574231",
"m+	c #4B3529",
"n+	c #51382C",
"o+	c #4F392A",
"p+	c #4F382C",
"q+	c #594431",
"r+	c #4E382D",
"s+	c #4E372C",
"t+	c #50392F",
"u+	c #523D2C",
"v+	c #553F2E",
"w+	c #574030",
"x+	c #584131",
"y+	c #5A4333",
"z+	c #4E392E",
"A+	c #4E3D32",
"B+	c #5A4634",
"C+	c #4D352A",
"D+	c #49372D",
"E+	c #4B3A32",
"F+	c #4D352B",
"G+	c #5F4A37",
"H+	c #513A2E",
"I+	c #584231",
"J+	c #4C3A34",
"K+	c #5A4435",
"L+	c #564034",
"M+	c #524134",
"N+	c #5B4435",
"O+	c #4B352B",
"P+	c #543E32",
"Q+	c #543E31",
"R+	c #48342A",
"S+	c #5A493B",
"T+	c #5C4536",
"U+	c #513B30",
"V+	c #553F32",
"W+	c #49342B",
"X+	c #5B4B3D",
"Y+	c #563F31",
"Z+	c #4F3B32",
"`+	c #59483B",
" @	c #5B4538",
".@	c #574339",
"+@	c #584539",
"@@	c #604936",
"#@	c #553F33",
"$@	c #4C352E",
"%@	c #5B4738",
"&@	c #5A4334",
"*@	c #533E2E",
"=@	c #5E4735",
"-@	c #594433",
";@	c #4C352A",
">@	c #5B4737",
",@	c #5C493C",
"'@	c #564131",
")@	c #543F30",
"!@	c #554033",
"~@	c #5A4437",
"{@	c #574032",
"]@	c #604938",
"^@	c #5F4C3D",
"/@	c #594434",
"(@	c #594334",
"_@	c #584334",
":@	c #5B4438",
"<@	c #4E392A",
"[@	c #574031",
"}@	c #563F30",
"|@	c #544033",
"1@	c #5E4C3C",
"2@	c #604835",
"3@	c #5F493A",
"4@	c #5D4739",
"5@	c #584234",
"6@	c #5C4738",
"7@	c #533D2F",
"8@	c #5A4436",
"9@	c #4C372A",
"0@	c #503B2E",
"a@	c #4D3828",
"b@	c #5B4533",
"c@	c #543D31",
"d@	c #4E392D",
"e@	c #513B2B",
"f@	c #4B372C",
"g@	c #5A422F",
"h@	c #594336",
"i@	c #503A2B",
"j@	c #4C3729",
"k@	c #5C4534",
"l@	c #523E35",
"m@	c #574539",
"n@	c #51382B",
"o@	c #50392B",
"p@	c #4F382A",
"q@	c #513A2F",
"r@	c #5A453A",
"s@	c #533A2D",
"t@	c #533B2F",
"u@	c #533B2E",
"v@	c #5B4636",
"w@	c #523D32",
"x@	c #5C4732",
"y@	c #584335",
"z@	c #5B4638",
"A@	c #5A4537",
"B@	c #4D392E",
"C@	c #523B2F",
"D@	c #4C3B31",
"E@	c #533D31",
"F@	c #503A2F",
"G@	c #4C3529",
"H@	c #503B2F",
"I@	c #4B352C",
"J@	c #4F3A2C",
"K@	c #50382B",
"L@	c #4D362D",
"M@	c #574134",
"N@	c #553E31",
"O@	c #5D4734",
"P@	c #4F3A2D",
"Q@	c #47332B",
"R@	c #594234",
"S@	c #564639",
"T@	c #523D2D",
"U@	c #5D4736",
"V@	c #584236",
"W@	c #5C4637",
"X@	c #543D2E",
"Y@	c #584438",
"Z@	c #5D4D3E",
"`@	c #554032",
" #	c #5D4833",
".#	c #574136",
"+#	c #4F3A2A",
"@#	c #574336",
"##	c #5E4D3C",
"$#	c #604834",
"%#	c #5F4A38",
"&#	c #543D2F",
"*#	c #5C4A3B",
"=#	c #5F4734",
"-#	c #503B2D",
";#	c #554031",
">#	c #574234",
",#	c #5B483A",
"'#	c #573E30",
")#	c #5A4535",
"!#	c #5B4637",
"~#	c #574233",
"{#	c #4B372B",
"]#	c #5A493A",
"^#	c #574235",
"/#	c #5F4937",
"(#	c #594333",
"_#	c #574131",
":#	c #4A382C",
"<#	c #59483A",
"[#	c #56402F",
"}#	c #5E4A37",
"|#	c #59493B",
"1#	c #4E3828",
"2#	c #4E3729",
"3#	c #4D3728",
"4#	c #5A4439",
"5#	c #5B4937",
"6#	c #5C4937",
"7#	c #523B30",
"8#	c #4D3529",
"9#	c #563E31",
"0#	c #5A4236",
"a#	c #5A4336",
"b#	c #594235",
"c#	c #574033",
"d#	c #543D30",
"e#	c #594432",
"f#	c #4D382A",
"g#	c #4A362C",
"h#	c #5C4938",
"i#	c #5F4938",
"j#	c #543E2D",
"k#	c #543D2D",
"l#	c #57402F",
"m#	c #4B372D",
"n#	c #5D493D",
"o#	c #5E4A36",
"p#	c #5F4A3D",
"q#	c #4E3629",
"r#	c #5A4532",
"s#	c #5F4B3D",
"t#	c #5A4433",
"u#	c #5A4637",
"v#	c #5E4B3C",
"w#	c #4E392C",
"x#	c #594233",
"y#	c #5D473A",
"z#	c #554135",
"A#	c #5D4B3D",
"B#	c #5A4533",
"C#	c #604937",
"D#	c #51392C",
"E#	c #554134",
"F#	c #5B493D",
"G#	c #543F2E",
"H#	c #5B4639",
"I#	c #4D3A31",
"J#	c #4E372E",
"K#	c #584232",
"L#	c #5D4839",
"M#	c #523E30",
"N#	c #503D32",
"O#	c #543A2E",
"P#	c #49342A",
"Q#	c #604836",
"R#	c #604735",
"S#	c #604734",
"T#	c #5E4734",
"U#	c #4D352C",
"V#	c #4C372F",
"W#	c #594533",
"X#	c #573F32",
"Y#	c #4B3528",
"Z#	c #503C2C",
"`#	c #513D2E",
" $	c #4C362E",
".$	c #4A362B",
"+$	c #594534",
"@$	c #5D4935",
"#$	c #4B362C",
"$$	c #543F32",
"%$	c #4D3A2C",
"&$	c #543E33",
"*$	c #553A2B",
"=$	c #543A2C",
"-$	c #533A2C",
";$	c #4E352A",
">$	c #4D342B",
",$	c #584030",
"'$	c #604737",
")$	c #594132",
"!$	c #4E3528",
"~$	c #523A2C",
"{$	c #51382A",
"]$	c #5B4232",
"^$	c #614836",
"/$	c #5B4334",
"($	c #4E3529",
"_$	c #543C2E",
":$	c #5F4636",
"<$	c #553D2F",
"[$	c #4E362C",
"}$	c #4E352C",
"|$	c #50372A",
"1$	c #5A4132",
"2$	c #604837",
"3$	c #5D4433",
"4$	c #5C4332",
"5$	c #5E4635",
"6$	c #614837",
"7$	c #5D4434",
"8$	c #52392C",
"9$	c #504038",
"0$	c #503C2F",
"a$	c #503C31",
"b$	c #503C32",
"c$	c #4F3B31",
"d$	c #4B382E",
"e$	c #4B372E",
"f$	c #4A3730",
"g$	c #5A483A",
"h$	c #5C493B",
"i$	c #4F3C32",
"j$	c #4F3D31",
"k$	c #503D31",
"l$	c #4D3930",
"m$	c #4B372F",
"n$	c #5C4A3A",
"o$	c #594739",
"p$	c #4B3730",
"q$	c #49382F",
"r$	c #4A382F",
"s$	c #4F3C33",
"t$	c #574538",
"u$	c #5A4737",
"v$	c #523E32",
"w$	c #4C3830",
"x$	c #4F3B30",
"y$	c #4E3B30",
"z$	c #4C3831",
"A$	c #564335",
"B$	c #523E33",
"C$	c #4E3A2F",
"D$	c #5D493C",
"E$	c #513E31",
"F$	c #4D3B33",
"  . + @ # $ % & * * = - ; > , ' ) ! > ~ { { { { { { { ] ^ & / ( _ : < [ ~ } | 1 2 3 4 5 6 7 ~ ~ ~ 8 9 0 a b ~ ~ ! c d e f ~ { g ",
"h i j j j k j j j j j j j l m n o p q q r r r r s s s t u v w x v y z z z A B C i k D E r r r r r F G j H I J J K C L M N O P Q ",
"R j j j j j j j j S j i T y z U o J J K J K w U V V V W T t u W X I Y Z `  .x W ....r r r r r r r s r +.@.#.o $.%.&.W *.i X X =.",
"-.S j j j j j j j S S ;.>.,.#.i '.U '.i i X i i j j j j j U W U j ).Z !.~.{.J ].q q r r r r r r r ].F X $.^.j /.i (.U *.j j j ) ",
"_.i j j j j j j j :.S <.z [.P j j j j j j j j j j j j j j j j X j r }.|.1.q r r r r r r r r r r r  .t 2.o B k j j 3.'.*.j j j 4.",
"_.i j j j j j j j i q 5.}.6.V j j j j j j j j j j j j j j j j X j 7.8.X U J s s 9.0.a.N N N b.P O q W j $.c.k j X d.1.S j j j 4.",
"_.i j j j j j j j e.f.y g.h.i.j j j j j j j j j j j j j j j j X i j.k.i '.'.'.x i i i i i i i i /.l.M j m.5.{.j x n.o.j j j j 4.",
"_.M /./.j j x p.q.A r.s.s.z t.{.i i S u.j i i i j j j i i u.v.i |.w.x.u.j i j j j j j j j j j j j j *.u.y.m U j K z.w.|.M S S A.",
"B.C.D.E.F.c.y z z [.G.H.G.Z z c.I.w X M j i i i j j j i X J.K.o.L.y m 1.i S j j j j j j j j j j j i *.u.M.y N.O.P.Q.Z Z t.R.O.S.",
"T.m f.m g.U.V.m u ~.1.|.^.f.z y y W.X.Y.a.Z.V V `.a. +.+F.h.,.z y y Z ++r @+j j j j j j j j j j j i *.i B y m ` #+K $+q.` f.f.%+",
"&+*+=+-+;+>+z ,+j {.U x x {.J #.f.'+)+r.r.!+!+!+s.,.}.s.G.~+{+]+]+q.n.H.H.^+/+k j j j j j j j j j j S |.Q.Y (+'.%.K W U {.U {._+",
":+<+K /.;+Z [+Z.r r r r 9.}+b.|+1+K.Y.2+r.r.s.'+z 3+x.n w U U Z.P b.1+J A y Z m 4+K M u.u.*.*.*.*.S ~.3+5+U x K q q q q r r r o ",
"6+7+K.1.w.8+x J r r r r r s s 9+9.K.~.w 0+r.r.a+|.x w q J J J s s b+s X c+z [.d+Z Z e+O.K {.x x W @.B z 1.M i U q q q q r r r o ",
"6+f+U g+A U U ].r r r r r r r r r q q X h+r.i+j+K p J q q q q r r r ].'.M.5.K x k+l+L.A A [.H.H.H.y Z d+m+*.j i X W J J r r r o ",
":+n+o+A g+j m+p+9.p ].q q r r r F t p U q+W.Z.].n v n q q q q r r r r r+H B 1+s+t+s+k w u+v+w+x+y+m g.A i u.S j i i x U Z.a.].z+",
"A+'.B+B k u.j j S U U U U O ].r r q q 1.Y B K.q q q q r s s s s s s 9+%.<.>.C+O r r s O P W W W U s+g+A x j j j j j j j j j k D+",
"E+T w.p i u.j j j i i i i F+{.q r q q K.G+4+K J q q q J H+9.0.0.0.H+q k ]+I+C+s r r s s 9+s J J q W X d.m.j j j j j j j j j j ) ",
"J+d+K+m+j j j j j j j j j S j U q J 1.H z p j W K W U x i j i '.'.i X j 4+v+C+s r r r r r r q q q q j L+C j j j j j j j j j j ) ",
"M+B %.j j j j j j j j j j j j j S l.X N+w.-+*.i j j j j j j j j j j u.O+L.n N s r F r r r r r r r ..x P+Q+j j j j j j j j j j R+",
"S+x.j j j j j j j j j j j j j j S *.1.H.T+k *.i j j j j j j j j j j S {.A w -+s r r r r r r r r r U+x V+|.j j j j j j j j j j W+",
"X+J.S j j j j j j j j j j j j j j j Y+r.5+j *.i j j j j j j j j j j j C y U S k %.K K K K K K K.K o i (.W j j j j j j j j j j Z+",
"`+X S j j j j j j j j j j j j j j j ~+,.C.k *.i j j j j j j j j j j '.d+m x u.j j x X X X i x X X j i  @{.j j j j j j j j j '..@",
"+@2.j j j j j j j j j j j j j j j ].G.@@v X j j j j j j j j j j j /.#@H.h.j j j j j j j j j j j j $@K.z.J j j j j j j j *.-+;+%@",
"d j j j j j j j j j j j j j j j i &@,.G.D X j j j j j j j j j u.i *@z r.=@X j j j j j j j j j j j i -@G+c+{.X X ;@F+F+j +.V+z.>@",
",@j j j j j j j j j j j j j j j 0.h.'+G.M.x j j j O+j j /././.1.'@z }.,.,.)@j j j j j j j j j j j $.t.o.!@~@^.q.#.{@{@&@h.]@]@d.",
"^@w+j S j j j j j j j j j S j X /@}.'+Z A c+C e.I.5+c+q.(@l L.W.y z 2+m W.z._@'.j *.j j j j j j {.:@w a.H+K.1.<@v C <.[@}@$+r |@",
"1@2@&@J.x j X X X i j j j k x <.z y y z 3@w.4@d.t./@5@]+;+'@q.z y R.k+U x m.c+6@7@X j j j S j X 5@P O s 9+u n u t q K K q q ..% ",
"1@2@}.y 8@#@y.W U 9@i '.'.v &@H.>+f.I.0@{.x X X x U K J J J U B D.a@q U+..o 9@J d+b@c@'.;@;@d@~@t W J 9.9.t t n n n t t e@q K f@",
"1@g@r e.V+M.(.h@8@K+>.d+c.G.r.G.(@1+~.w i@K.K.q t v t t t q 1.B v K p t t v J w j@$+^+0+k@8+A y.O+j i i i j j k {.K $.$.q W k l@",
"m@n@r r o@p@b.b.Z.Z.x j@x q@t.[.x O r r r r r r r r r n n q x 2+Z.s F r r r r r K.j+i H n.c.A U S j k s+r+{.'.i i j j j j j U r@",
":+s@r r E r s s s ].J J J %.1.w.j+t@u@r r r r r r r r q K x x 0+Z.s F r r r r r E r J w 1.'@y >.5@v@d+F.L.L.L.d+#.K.j u.i x ^.w@",
"6+s@r r r r r r r r q q q J '.t.i+P 9+r r r r D W U U '.j X x H.Z.s F r r r r r r r t q W x 3+x@m.{.%.%.W w i@n y.y@z@A@/@c+7@B@",
":+9+O Z.U U Z.9.].r q q q t o Q+g+N H+q D Z.j+1+x i i j *.j w ]@Z.0.F r r r r r r r u q H+l.^.O.%.u u u t J ..C@$.'.a@y 5.T x _+",
"D@i j j j j j j r+H+r r r n J x c+m+*.i i j j j j j j i S *.[+G+q j W 9+r 9+9+r r r r r P C+d+E@q r r r r r r r q %.x z U+j j 4.",
"D@j j j j j j j j 1+a.s H+q F@m+8@U *.S j j j j j j j i S *.V+y y.j X X X G@+.+.N Z.D 9.1+-+d+H@J r s 9+9+r r r q $.U D.j j j 4.",
"_.i j j j j j j j j i j {.U I@j 4+;+S *.j j j j j j j i S u.(.Z &.j i i i i i i i i X i j k 3+-+J@P P P K@D D D q W q l+i j j 4.",
"R :.j j j j i i i i j j j S j i <.6.L@S j j j j i i i i S S c+W.(@j j j j j j j j j j j j r+M@;@j ;@;@1+i ;@1+1+i M N@O@P@i S Q@",
"_.j j j j j *.*.*.u.j j j j j m+(@r.q@j j j j j j j j i j k 3+r.N+i u.j j j j j j j j j j @.W j j j j j j j j j j j R@r.w.]+W ) ",
"S@T@U i i i S u.S i X X X i X q >+,.d+j u.j k i /.x i j@1.#.g.'+U@~.j j j j j j j j j j Q V@x i j j j j j j j j j x W@X@ .<.c.Y@",
"Z@y z 3+8+-@5@M.`@L $+[+|.y.5@w.A ,.Z y.;@i x ..<.l W@2+L.v@ #'+}.C G@j j j j j j j S j o .#i i j j j j j j j j j 1.x+p+H+J@+#@#",
"##$#0+d+-@4+_@_@l v@B A A %#y A A y y z K+5@_@H Y.&#D U x X X V+f.y ;+%.i M M M j M u.i M.L O+j j j j j j j j j :...).J r r D z+",
"*#=#Z.x 1.U {.r+k i ~.U -#;#L.z Z g.d+J '.k r+$.r E r q J J 9.S [+y Y A v@>#$+7@7@V+q.L.A K+j j j j j j j j j j '.h@w q r r r 2.",
",#'#s J J J J J J q q J K.U x c.y )#~.W J J J J r r r r r r r %.j !#y R.7@[+m.J K.w w U K.4@&@{@Y+O.p.w 1.J.o+~#c.^.x q r r r {#",
"]#9+r r r r q q q q r r r q x v@8.p@D r r r r r r r r r r r r t j ^#-@~.K.K r r q r 9.K.m+C /#>+#.'@'@g+(#d+2+A y _#i x j+9.9.:#",
"<#U s r r r q q q q r r r v X n.[#p@r r r r r r r r r r r r r J '.5@N.K.q q r r r r r r W +#c.).w W W w w 1.1.|.}#i@j j X X W & ",
"|#x p+K $.$.J J q q r r r K [+A 1#D r r r r r r r r r ].s s O V ;.8@K.p q q r r r r r q K x ^.W q q q q q q q w L.9@S i i j j 4.",
"|#X j j j j i U K ].r r r {.d+R.2#r r r r r r r r r r r s b.N j 3#B x w K K.D r r r r r K i 4#U K.w q q q q q q 5@i u.i j j j 4.",
"5#*.i j j j j j j '.k s+'.%.[.i@0.r r r 9+s s O K K w '.-+j j j w n.'.i j j j -+-+{.w w x i  @%.S i i U %.K ).N.y.j j j j j j R+",
"6#$@i j j j j j j j j j i #.E.i 7#s s O P N 1+8#X X X i j j j i *@A 1.j M M M j j j j j j i d.e.j *.*.*.u.j x (.{.j j j j j j = ",
"6#$@i j j j j j j j j j %.W.e.j %.W U X i j j j j j j j j j j G@-@y 5@9#0#a#b#c#d#K.V X X q c.e#f#'.k l.;@i i d.i /.j j j j j g#",
"h#*.j j j j j j j j S j V+m U u.j j j j j j j j j j j j j j S U z Q.i#0+x+j#k#l#k@0+2+>.!.c.z c.L.W@6@W@l ~#d+z ~#U i '.O+j j m#",
"n#;@j j j j j j j j *.-+=@t.l.u.i j j j j j j j j j j j j S S ;+Z o#g+U U K q D D p K+Z Q.(@q t t t -#p.e.O.R.(#v@>+W@M.@.i m+|@",
"p#q#j j j j j j j S j }@/#H u.u.i j j j j j j j j j j j j i 1. #y M.x K J J p r r D 1.r#z 1.o F@F@F@o o %.{.U '.i i K.I.h@6@B %@",
"s#t#{.j j j j j j *.i 8.G.7@l.u.i j j j j j j j j j j u.M X /@Z 8@x q q q q r r r r J n A U q q q q q q q J J K J K K W U ~.'@u#",
"v#,.f.)#l+*@w#'.x V x#}.,.L S j j j j j j j j j j j j $@u. .y n.1.q q r r r r r r r q x y#w r r r r r r r q q q q r r ].p.K i z#",
"A#r.n.l #.#.B#3+f.m C#s.s.8@X j j j j j j j j j j j j *.*+2+z J K J J r r r r r r r q '.A@t D#s s s s s r q q q q r r r q q x E#",
"F# +x i j j j j F@#.8.r.r.A t ;@u.j j j j j j j j j j x >.y L U J $.K K K K K K K K K j 4+G#i %.K W w#U K K J J ].E r r J 1.q H#",
"I#@+K.q ].J J K.x 1+@+.+[.Z z.E@J#j j j j j j j j j {.c+y e+'.k k k /.X X X X X X X /.i K#)#j j j j j j i X X U W 9.q 9.k J L#M#",
"N#O#r r r r r r r q W i o B f.y 3+t.>#Q+W 9@i i '.H c.!+r.i@j j j j j j j j j j j j *.;@R@4@k j j j j j j j j j i i j j K 5.p.P#",
":+7+r r r r r r r v q K i ~./@y g.U.Z z Q#R#S#T#Z Z y Z =@~.i j j j j j j j j j j j S 1+0+r.'@1+U#l.j j j i i i j j i X 8+O.j V#",
"6+7+r r r r r r r F n q U O+X m Z m W#g+K#x#&@^+y Q.Z '+G.]+k j j j j j j j j j j j j 7@C#@@G.N+X#7@p.w ~.X X Y#u.u.X C !.X %.B@",
"6+f+].].].].r r r q Z#`#f  $2.c.5.{ j 2..$.$Q {#9@o.+$@$}.>+L :.#$#$Q #$#$#$Q #$#$S W 2+!+W.n.!.8+m i#z >+2+5+g+$$@.J 5.m.2.-#%$",
"&$*$=$=$=$f+f+f+f+-$r D#;$>$,$'$)$!$n@s@-$~$~$~$n@`.N {$]$^$2@/$N C+F+C+C+C+F+C+($_$R#Q#:$<$[$}$F+|$1$2$^$R#3$4$5$'$6$7$q#8$-$W ",
"9$0$S.a$a$a$b$a$c$. d$e$f$@ g$h$B@. i$i$j$k$k$k$i$i$c$l$m$S.%@n$o$I#p$q$r$r$f$s$t$n$u$v$w$w$. x$y$z$m#A$*#B$C$y$> E#D$E$w$i$k$F$"};
